<?xml version="1.0" encoding="UTF-8" standalone="no"?>
<!-- Created with Inkscape (http://www.inkscape.org/) -->

<svg
   width="75.279495mm"
   height="9.2770138mm"
   viewBox="0 0 75.279495 9.2770138"
   version="1.1"
   id="svg5"
   inkscape:version="1.1.1 (1:1.1+202109281949+c3084ef5ed)"
   sodipodi:docname="drawing.svg"
   xmlns:inkscape="http://www.inkscape.org/namespaces/inkscape"
   xmlns:sodipodi="http://sodipodi.sourceforge.net/DTD/sodipodi-0.dtd"
   xmlns="http://www.w3.org/2000/svg"
   xmlns:svg="http://www.w3.org/2000/svg">
  <sodipodi:namedview
     id="namedview7"
     pagecolor="#ffffff"
     bordercolor="#999999"
     borderopacity="1"
     inkscape:pageshadow="0"
     inkscape:pageopacity="0"
     inkscape:pagecheckerboard="0"
     inkscape:document-units="mm"
     showgrid="false"
     inkscape:zoom="0.95321268"
     inkscape:cx="98.089337"
     inkscape:cy="95.466627"
     inkscape:window-width="1366"
     inkscape:window-height="721"
     inkscape:window-x="0"
     inkscape:window-y="0"
     inkscape:window-maximized="1"
     inkscape:current-layer="text3090" />
  <defs
     id="defs2">
    <rect
       x="-810.73199"
       y="246.74454"
       width="629.45032"
       height="181.28168"
       id="rect3092" />
    <rect
       x="-810.73199"
       y="246.74454"
       width="162.81781"
       height="62.945"
       id="rect3092-1" />
  </defs>
  <g
     inkscape:label="Layer 1"
     inkscape:groupmode="layer"
     id="layer1"
     transform="translate(219.15411,-31.486931)">
    <g
       aria-label="Florida"
       transform="matrix(0.26458333,0,0,0.26458333,-4.4411212,-35.973085)"
       id="text3090"
       style="font-size:40px;line-height:1.25;letter-spacing:0px;word-spacing:0px;white-space:pre;shape-inside:url(#rect3092)">
      <path
         d="m -809.01367,280.24198 q -1.17188,-0.66406 -1.79688,-1.875 -0.625,-1.21094 -0.70312,-2.30469 0.11719,-0.9375 0.50781,-1.44531 0.35156,-0.54688 0.85938,-0.85938 0.50781,-0.35156 1.05468,-0.50781 0.54688,-0.19531 1.05469,-0.3125 l 0.58594,0.19531 q 0.19531,0.19532 0.39062,0.35157 0.23438,0.15625 0.42969,0.3125 0.39063,-0.15625 0.46875,-0.46875 0.11719,-0.3125 0.23438,-0.625 0.11718,-0.42969 0.27343,-0.85938 0.15625,-0.42969 0.39063,-0.85937 -0.0391,-0.35157 0.0391,-0.625 0.0781,-0.27344 0.15625,-0.46875 -0.23437,-0.19532 -0.35156,-0.19532 -0.0781,-0.0391 -0.3125,-0.11718 -0.11719,0 -0.23438,0 -0.11718,-0.0391 -0.27343,-0.0781 -0.58594,-0.42969 -0.78125,-0.70312 -0.15625,-0.3125 -0.35157,-0.625 -0.19531,-0.3125 -0.35156,-0.54688 -0.15625,-0.23437 -0.35156,-0.42969 l -0.46875,-0.3125 0.23437,-0.46875 q 0.0781,-0.0781 0.0781,-0.19531 0,-0.15625 -0.15625,-0.42969 -0.11719,-0.50781 -0.0391,-0.74218 l 0.0781,-0.46875 q 0.39063,-0.50782 0.42969,-0.58594 l 0.39062,-0.39063 q 0.89844,-0.23437 1.83594,-0.50781 0.9375,-0.3125 1.83594,-0.625 0.89844,-0.3125 1.83594,-0.625 0.9375,-0.3125 1.875,-0.54687 0.3125,-0.27344 0.66406,-0.3125 0.39062,-0.0781 0.70312,-0.11719 0.27344,0 0.50782,-0.0391 0.23437,-0.0391 0.35156,-0.19532 0.66406,-0.23437 1.28906,-0.39062 1.17188,-0.3125 3.08594,-0.74219 1.91406,-0.42969 4.29687,-0.625 l 0.82032,-0.0391 q 0.23437,0.0391 0.46875,0.0391 0.23437,-0.0391 0.46875,-0.0391 2.03125,0 2.69531,1.25 0.39062,0.19531 0.70312,0.50781 0.3125,0.27344 0.58594,0.54688 0.19531,0.19531 0.35156,0.35156 0.15625,0.11719 0.27344,0.19531 l 0.3125,0.3125 q 0.42969,0.9375 0.15625,1.83594 -0.23437,0.46875 -0.50781,0.54687 -0.27344,0.0781 -0.54688,0.15625 l -0.50781,0.27344 q -0.50781,-0.0391 -0.78125,-0.0391 -0.23437,0 -0.54687,0 -1.17188,0 -2.73438,0.15625 -1.52344,0.11719 -3.125,0.39062 -1.60156,0.23438 -3.125,0.625 -1.52344,0.35157 -2.65625,0.78125 -0.3125,0.23438 -0.82031,0.42969 -0.11719,0.0391 -0.35156,0.19531 0.0391,0.3125 0,0.625 -0.0391,0.27344 -0.11719,0.54688 -0.0391,0.19531 -0.0781,0.42969 0,0.19531 -0.0391,0.42968 -0.82031,0.97657 -0.78125,2.30469 l -0.19531,0.39063 q -0.15625,0.15625 -0.27344,0.46875 -0.0781,0.27343 0,0.58593 l 0.15625,0.46875 q 0.78125,-0.0781 1.52344,-0.15625 0.78125,-0.11718 1.64062,-0.23437 1.09375,-0.19531 2.1875,-0.3125 1.13282,-0.15625 2.34375,-0.15625 h 1.52344 l -0.35156,0.35156 0.42969,0.0391 -0.23438,0.625 q 0.27344,0.11719 0.39063,0.19532 0.15625,0.0391 0.27343,0.11718 l 0.27344,0.39063 q 0.19531,0.11719 0.35156,0.39062 0.15625,0.23438 0.19532,0.66407 l -0.11719,0.39062 -1.83594,2.34375 -0.23437,0.3125 -0.39063,-0.11719 q -0.74219,-0.0391 -1.40625,0.15625 -0.3125,0.0781 -0.66406,0.19532 -0.35156,0.0781 -0.70313,0.0781 -0.9375,0.15625 -1.5625,0.27344 -0.625,0.0781 -1.25,0.15625 -0.85937,0.15625 -1.67968,0.3125 -0.78125,0.11719 -1.48438,0.39062 -0.42969,0.0391 -0.50781,0.0391 -0.0781,-0.0391 -0.15625,-0.0391 -0.39063,0 -0.78125,0.11719 -0.39063,0.11719 -0.74219,0.23438 -0.23437,0.19531 -0.3125,0.42968 -0.0781,0.19532 -0.15625,0.42969 -0.0781,0.27344 -0.23437,0.54688 -0.11719,0.23437 -0.3125,0.50781 l 0.0391,0.70312 q -0.35156,0.0781 -0.35156,0.11719 0,0 -0.0391,0 0,0.3125 -0.11718,0.58594 -0.0781,0.27344 -0.15625,0.50781 -0.0781,0.15625 -0.11719,0.27344 -0.0391,0.11719 -0.0391,0.23437 0.39062,0.70313 0.19531,1.60157 -0.15625,0.74218 -0.58594,1.32812 -0.42969,0.54688 -1.01562,0.85938 -0.625,0.0781 -0.9375,-0.0391 -0.27344,-0.11718 -0.58594,-0.23437 -0.19531,-0.0781 -0.39063,-0.11719 -0.19531,-0.0781 -0.39062,-0.11719 l -0.46875,-0.39062 q -0.11719,-0.23438 -0.27344,-0.42969 -0.15625,-0.23437 -0.3125,-0.46875 -0.19531,-0.27344 -0.39062,-0.54687 -0.19532,-0.27344 -0.35157,-0.625 -0.27343,-1.36719 -0.11718,-2.26563 0.19531,-0.9375 0.50781,-1.83594 0.0781,-0.3125 0.15625,-0.58593 0.0781,-0.27344 0.15625,-0.58594 z"
         style="font-family:'Permanent Marker';-inkscape-font-specification:'Permanent Marker, Normal'"
         id="path44306" />
      <path
         d="m -777.41211,287.74198 q -1.09375,0.35156 -2.38281,0.70312 -1.28906,0.35157 -2.57813,0.35157 -1.95312,0 -3.08593,-0.97657 -0.19532,-0.42968 -0.35157,-0.58593 -0.11718,-0.15625 -0.23437,-0.3125 -0.0781,-0.19532 -0.11719,-0.50782 -0.46875,-0.54687 -0.74219,-1.25 -0.27343,-0.74218 -0.39062,-1.48437 -0.0781,-0.78125 -0.0391,-1.5625 0.0781,-0.78125 0.27343,-1.48438 0.0781,-0.15625 0.0781,-0.3125 0.0391,-0.15625 0.0781,-0.35156 0.15625,-0.625 0.3125,-1.21094 0.19532,-0.58593 0.50782,-1.01562 -0.15625,-0.35156 0,-0.78125 0.15625,-0.42969 0.35156,-0.78125 0.54687,-1.48438 0.89844,-2.5 0.39062,-1.05469 0.78125,-2.07031 0.66406,-1.75782 1.25,-3.47657 0.58593,-1.71875 1.05468,-3.71093 0.3125,-0.19532 0.46875,-0.27344 0.23438,-0.0781 0.39063,-0.11719 0.70312,0.35156 1.64062,0.70313 0.9375,0.3125 1.5625,0.3125 0.3125,0.19531 0.39063,0.3125 0.0781,0.0781 0.15625,0.15625 0.42969,0.50781 0.74219,1.05468 0.3125,0.50782 0.19531,1.36719 -0.23438,0.35156 -0.35156,0.35156 -0.19532,0.78125 -0.42969,1.32813 -0.19531,0.54687 -0.42969,1.09375 -0.27344,0.58594 -0.50781,1.17187 -0.23438,0.58594 -0.39063,1.44532 -0.15625,0.19531 -0.23437,0.35156 -0.0391,0.15625 -0.11719,0.35156 -0.0781,0.19531 -0.19531,0.42969 -0.0781,0.19531 -0.27344,0.35156 -0.11719,1.01563 -0.39062,1.64063 -0.23438,0.625 -0.50782,1.25 -0.46875,1.13281 -0.85937,2.26562 -0.35156,1.13281 -0.42969,2.57813 0.19531,-0.0781 0.35156,-0.0781 0.19532,0 0.35157,0 0.35156,0 0.82031,0.11719 1.17187,-0.625 2.53906,-0.74219 1.40625,-0.11719 2.77344,-0.15625 0.54687,0 1.09375,0 0.54687,0 1.01562,-0.0781 0.35157,0.19531 0.42969,0.23437 0.11719,0 0.3125,0 0.27344,0 0.46875,0.0391 0.46875,0.42969 0.89844,0.625 0.42969,0.19532 0.89844,0.35157 0.42968,0.15625 0.82031,0.35156 0.42969,0.15625 0.82031,0.46875 l 0.27344,1.67969 q 0.27344,0.35156 0.23437,0.46875 0,0.3125 -0.15625,0.46875 l 0.0781,0.42968 q -0.58594,0.11719 -0.82031,0.27344 -0.19532,0.15625 -0.39063,0.35156 -0.3125,0.0391 -0.46875,0.0391 -0.11719,0 -0.23437,0 -0.54688,0 -1.32813,0.19531 -1.05469,-0.35156 -2.1875,-0.35156 -0.42969,0 -0.89844,0.0391 -0.46875,0.0391 -0.9375,0.0781 -0.46875,0.0781 -0.97656,0.11719 -0.46875,0.0391 -0.97656,0.0391 z"
         style="font-family:'Permanent Marker';-inkscape-font-specification:'Permanent Marker, Normal'"
         id="path44308" />
      <path
         d="m -743.62305,276.45292 q -0.0391,0.46875 0.0781,0.89843 0.11719,0.42969 0.27344,0.85938 0.19531,0.39062 0.35156,0.82031 0.15625,0.42969 0.23437,0.85938 0.0781,0.54687 0,1.21093 -0.0781,0.625 -0.27343,1.25 -0.19532,0.58594 -0.50782,1.09375 -0.3125,0.46875 -0.74218,0.70313 -0.54688,0.70312 -1.32813,1.09375 -0.78125,0.39062 -1.44531,0.9375 -0.42969,0.27344 -0.97656,0.39062 -0.50782,0.11719 -1.05469,0.23438 -0.42969,0.23437 -1.01563,0.50781 -0.58593,0.23438 -1.21093,0.46875 -0.625,0.19531 -1.25,0.3125 -0.625,0.0781 -1.09375,0.0391 -1.17188,0.42969 -2.30469,0.54688 -1.09375,0.15625 -2.57813,-0.15625 -1.40625,0.19531 -2.61718,-0.11719 -1.17188,-0.3125 -2.10938,-0.97656 -0.89844,-0.70313 -1.60156,-1.64063 -0.66406,-0.97656 -1.09375,-2.03125 -0.3125,-2.22656 0.15625,-4.02343 0.46875,-1.83594 1.32812,-3.35938 0.89844,-1.5625 2.03125,-2.85156 1.13282,-1.32813 2.1875,-2.57813 0.23438,0.0781 0.35157,0 0.15625,-0.11718 0.27343,-0.27343 0.11719,-0.19532 0.23438,-0.35157 0.15625,-0.15625 0.35156,-0.19531 0.27344,-0.58594 0.78125,-0.85937 0.54688,-0.3125 0.85938,-0.85938 0.35156,-0.0781 0.58593,-0.23437 0.23438,-0.15625 0.42969,-0.35157 0.23438,-0.19531 0.46875,-0.35156 0.23438,-0.19531 0.54688,-0.27344 v -0.42968 q 0.70312,-0.3125 1.01562,-0.70313 0.35156,-0.42969 0.82031,-1.01562 0.35157,-0.0391 0.54688,-0.0391 0.23437,0 0.66406,-0.0781 0.3125,-0.54688 0.54688,-0.82031 0.27343,-0.27344 0.78125,-0.58594 0.46875,0.23437 1.01562,0.3125 0.58594,0.0781 1.01563,0.50781 0.0391,0.39063 0.23437,0.625 0.19531,0.19531 0.42969,0.39063 0.23437,0.15625 0.42969,0.35156 0.23437,0.19531 0.3125,0.54687 0.15625,0.0391 0.19531,-0.0391 0.0781,-0.0781 0.23437,-0.0391 0.11719,0.54687 0.27344,0.74219 0.15625,0.15625 0.3125,0.66406 -0.19531,0.39062 -0.3125,0.82031 -0.0781,0.39063 -0.46875,0.58594 -0.0391,0.27344 0.15625,0.3125 0.19531,0 0.23438,0.19531 0.0391,0.35156 -0.11719,0.50781 0.9375,1.52344 1.67969,3.24219 0.74218,1.67969 1.67968,3.20313 z m -4.88281,3.71093 q 0.15625,-0.42968 0.39063,-0.70312 0.27343,-0.27344 0.3125,-0.82031 -0.19532,-0.3125 -0.23438,-0.46875 -0.0391,-0.19532 -0.0391,-0.58594 -0.85938,-1.21094 -1.48438,-2.57813 -0.625,-1.40625 -1.40625,-2.61718 -0.0781,0.15625 -0.27343,0.3125 -0.19532,0.15625 -0.42969,-0.0781 -0.0781,0.3125 -0.27344,0.46875 -0.19531,0.11719 -0.42969,0.11719 -0.23437,-0.0391 -0.50781,-0.11719 -0.23437,-0.11719 -0.42969,-0.27344 -1.13281,0.89844 -2.26562,1.75782 -1.13281,0.85937 -2.03125,1.99218 -0.15625,0.0781 -0.19531,0.0781 -0.0391,-0.0391 -0.23438,0.0391 -0.3125,0.74219 -0.78125,1.36719 -0.42969,0.58594 -0.85937,1.21094 -0.42969,0.625 -0.74219,1.32812 -0.3125,0.70313 -0.35156,1.64063 0.66406,0.54687 1.5625,0.66406 0.89843,0.11719 1.83593,0.0391 0.97657,-0.0781 1.875,-0.23437 0.9375,-0.19532 1.71875,-0.19532 1.64063,-0.39062 2.8125,-1.01562 1.17188,-0.66406 2.46094,-1.32813 z"
         style="font-family:'Permanent Marker';-inkscape-font-specification:'Permanent Marker, Normal'"
         id="path44310" />
      <path
         d="m -734.95117,284.10917 q -0.42969,1.5625 -0.78125,2.38281 -0.3125,0.78125 -0.97656,1.64062 -0.50782,-0.0781 -0.70313,0.11719 -0.19531,0.19531 -0.42969,0.35156 -0.35156,0.0781 -0.50781,0 -0.15625,-0.0781 -0.27344,-0.19531 -0.11718,-0.0781 -0.3125,-0.19531 -0.15625,-0.0781 -0.50781,-0.0781 -0.0781,-0.3125 -0.19531,-0.58593 -0.0781,-0.27344 -0.50781,-0.19532 0.0781,-0.3125 0.0391,-0.50781 -0.0391,-0.23437 -0.11719,-0.39062 -0.0391,-0.19532 -0.0781,-0.35157 -0.0391,-0.19531 0.0391,-0.46875 -0.19531,0 -0.3125,-0.27343 -0.11719,-0.27344 -0.27344,-0.54688 0.11719,-0.70312 0.23438,-1.32812 0.11718,-0.625 0.27343,-1.17188 0.19532,-0.54687 0.3125,-1.09375 0.11719,-0.54687 -0.11718,-1.13281 0.15625,0.11719 0.23437,-0.0391 0.0781,-0.19532 0.11719,-0.46875 0.0391,-0.3125 0.0391,-0.58594 0,-0.3125 -0.0391,-0.50781 0.39062,-1.01563 0.625,-2.07032 0.27344,-1.09375 0.46875,-2.14843 0.23437,-1.05469 0.46875,-2.07032 0.23437,-1.01562 0.625,-1.875 0.42969,-0.0781 0.9375,0.11719 0.54687,0.15625 0.66406,0.42969 1.01563,-0.78125 1.79688,-1.875 0.78125,-1.13281 1.60156,-2.1875 0.82031,-1.05469 1.79687,-1.875 1.01563,-0.82031 2.53907,-0.97656 0.78125,0.58593 1.71875,1.21093 0.97656,0.58594 1.60156,1.5625 0.3125,0.15625 0.50781,0.35157 0.23438,0.15625 0.54688,0.35156 v 0.46875 q 0.46875,0.42969 0.74218,1.01562 0.3125,0.54688 0.54688,1.21094 0.23437,0.625 0.46875,1.28906 0.23437,0.625 0.54687,1.21094 -0.0781,0.19531 -0.0781,0.35156 0,0.11719 0.0391,0.27344 0.0781,0.15625 0.11719,0.3125 0.0391,0.15625 0,0.42969 -0.11719,1.71875 -1.13281,2.77344 -0.97657,1.05468 -2.38282,1.75781 -1.40625,0.66406 -3.00781,1.13281 -1.60156,0.46875 -2.89062,1.01563 0,0.15625 0.11718,0.15625 0.15625,0 0.11719,0.19531 0.9375,0.58594 1.48438,0.9375 0.54687,0.35156 1.01562,0.58594 0.50781,0.23437 1.05469,0.42968 0.58594,0.15625 1.60156,0.39063 1.01563,0.23437 1.5625,0.39062 0.58594,0.11719 1.05469,0.23438 0.46875,0.0781 0.9375,0.15625 0.50781,0.0391 1.40625,0.11719 0.35156,0.35156 0.58594,0.85937 0.27343,0.46875 0.35156,0.97656 0.0781,0.46875 0.0391,0.9375 -0.0391,0.42969 -0.27344,0.70313 0.0391,0.11719 0.15625,0.11719 0.15625,-0.0391 0.3125,0 -0.23437,0.15625 -0.39062,0.39062 -0.15625,0.23438 -0.3125,0.46875 -0.15625,0.23438 -0.35156,0.39063 -0.19532,0.19531 -0.54688,0.23437 -1.21094,0.46875 -3.04687,0.0391 -1.83594,-0.39062 -4.64844,-1.48437 -1.40625,-0.54688 -2.30469,-0.9375 -0.85937,-0.42969 -1.52344,-0.82031 -0.625,-0.42969 -1.17187,-0.89844 -0.50781,-0.46875 -1.25,-1.13281 z m 5.58594,-13.39844 q -0.42969,0.625 -0.97657,1.13281 -0.50781,0.50781 -1.01562,1.05469 -0.46875,0.50781 -0.85938,1.17187 -0.39062,0.625 -0.54687,1.48438 1.36719,-0.15625 2.85156,-0.74219 1.48438,-0.625 2.8125,-1.17187 -0.15625,-1.21094 -0.85937,-1.95313 -0.66407,-0.74219 -1.40625,-0.97656 z"
         style="font-family:'Permanent Marker';-inkscape-font-specification:'Permanent Marker, Normal'"
         id="path44312" />
      <path
         d="m -711.31836,285.43729 q 0.19531,1.17188 -0.15625,1.83594 -0.3125,0.66406 -0.9375,0.97656 -0.58594,0.35156 -1.36719,0.39063 -0.78125,0.0391 -1.48437,-0.0781 -0.39063,-0.54687 -0.70313,-1.36719 -0.3125,-0.82031 -0.58593,-1.67968 -0.27344,-0.89844 -0.50782,-1.75782 -0.19531,-0.85937 -0.35156,-1.52343 0.19531,-0.46875 0.23438,-1.05469 0.0781,-0.625 0.0781,-1.25 0.0391,-0.625 0.0391,-1.25 0.0391,-0.66406 0.11719,-1.25 0.27344,-1.64063 0.78125,-3.125 0.54688,-1.48438 0.85938,-3.08594 0.0781,-0.35156 -0.0781,-0.66406 -0.11719,-0.3125 -0.0391,-0.58594 0.0391,-0.15625 0.23437,-0.19531 0.19532,-0.0781 0.23438,-0.27344 0.11719,-0.42969 0.0391,-0.70312 -0.0391,-0.27344 0.15625,-0.66407 0.19531,-0.3125 0.46875,-0.89843 0.3125,-0.625 0.23438,-1.28907 0.35156,-0.23437 0.66406,-0.54687 0.3125,-0.3125 0.625,-0.54688 0.35156,-0.27343 0.74219,-0.46875 0.42968,-0.19531 1.01562,-0.19531 0.3125,0.39063 0.39063,0.85938 0.11718,0.46875 0.19531,0.9375 0.11719,0.46875 0.3125,0.89843 0.19531,0.39063 0.66406,0.625 0,0.3125 0,0.78125 0,0.46875 0.0391,0.9375 0.0391,0.42969 0.15625,0.82032 0.15625,0.35156 0.46875,0.46875 -0.70312,1.875 -1.32812,3.71093 -0.58594,1.83594 -0.97656,3.71094 -0.39063,1.83594 -0.50782,3.71094 -0.0781,1.875 0.27344,3.78906 z"
         style="font-family:'Permanent Marker';-inkscape-font-specification:'Permanent Marker, Normal'"
         id="path44314" />
      <path
         d="m -687.5293,277.62479 q -0.0391,0.19531 -0.0781,0.35156 -0.0391,0.11719 -0.0781,0.23438 -0.0391,0.11719 -0.0391,0.3125 0,0.15625 0,0.42969 -1.17187,2.07031 -2.96875,3.47656 -1.75781,1.40625 -3.90625,2.5 -2.10937,1.05469 -4.41406,1.95312 -2.30469,0.85938 -4.49219,1.875 -0.9375,-0.23437 -1.44531,-0.78125 -0.46875,-0.54687 -0.74219,-1.25 -0.23437,-0.74218 -0.35156,-1.60156 -0.0781,-0.89844 -0.15625,-1.83594 0.11719,-0.42968 0.3125,-0.70312 0.23437,-0.3125 0.23437,-0.85938 0.3125,-1.01562 0.625,-1.99218 0.3125,-0.97657 0.39063,-1.99219 0.11719,-0.3125 0.42969,-0.42969 0.19531,-1.875 0,-3.78906 -0.15625,-1.95313 -0.625,-3.63281 0.0391,-0.39063 0.0781,-0.54688 0.0781,-0.19531 0,-0.27344 -0.0391,-0.3125 0.19531,-0.3125 0.27344,0 0.54688,0 0,-0.58593 -0.23438,-1.17187 -0.19531,-0.58594 -0.39062,-1.32813 0.27344,-0.58593 0.35156,-1.13281 0.0781,-0.58594 0.35156,-1.01562 2.10938,0.66406 4.02344,1.60156 1.95313,0.9375 3.82813,1.36719 1.40625,1.01562 2.89062,2.03125 1.48438,0.97656 2.69531,2.1875 1.21094,1.17187 2.03125,2.69531 0.82032,1.52344 0.9375,3.63281 z m -9.25781,2.14844 q 0.82031,-0.3125 1.60156,-0.66406 0.82032,-0.35157 1.48438,-0.78125 0.70312,-0.46875 1.25,-1.05469 0.54687,-0.58594 0.89844,-1.40625 -0.23438,-0.46875 -0.625,-0.82031 -0.39063,-0.39063 -0.78125,-0.70313 -0.39063,-0.35156 -0.78125,-0.70312 -0.35157,-0.35157 -0.58594,-0.85938 -0.50781,-0.0781 -0.89844,-0.27344 -0.39062,-0.23437 -0.78125,-0.42968 -0.35156,-0.23438 -0.78125,-0.42969 -0.39062,-0.19531 -0.9375,-0.23438 -0.85937,-0.42968 -1.5625,-0.625 -0.66406,-0.19531 -1.01562,-0.50781 -0.27344,0 -0.42969,0.11719 0.39062,1.48437 0.58594,2.8125 0.19531,1.28906 0.19531,2.61719 0.0391,1.28906 -0.11719,2.65625 -0.15625,1.36718 -0.42969,2.96875 0.39063,-0.0391 0.70313,-0.15625 0.35156,-0.15625 0.66406,-0.3125 0.35156,-0.15625 0.70313,-0.27344 0.39062,-0.15625 0.89843,-0.19531 0.11719,-0.23438 0.3125,-0.39063 0.23438,-0.15625 0.42969,-0.35156 z"
         style="font-family:'Permanent Marker';-inkscape-font-specification:'Permanent Marker, Normal'"
         id="path44316" />
      <path
         d="m -666.24023,284.89042 q -0.23438,0.66406 -0.70313,1.36718 -0.42969,0.66407 -1.05469,1.21094 -0.58593,0.50781 -1.32812,0.85938 -0.74219,0.35156 -1.5625,0.39062 -0.50781,-0.11719 -0.70313,-0.27344 -0.15625,-0.11718 -0.35156,-0.23437 -0.11719,-0.0781 -0.23437,-0.11719 -0.0781,-0.0781 -0.15625,-0.11719 l -0.46875,-0.19531 0.15625,-0.50781 q 0.0781,-0.3125 -0.0391,-0.46875 -0.11718,-0.19531 -0.46875,-0.50781 -0.11718,-0.11719 -0.23437,-0.23438 -0.11719,-0.11719 -0.19531,-0.23437 l -0.66407,-0.74219 1.05469,-0.27344 q 0.97656,-0.27344 1.28906,-0.70312 0.35157,-0.42969 0.27344,-1.44532 -0.78125,-0.15625 -1.32812,-0.0391 -0.50782,0.11719 -1.05469,0.27344 -0.70313,0.19531 -1.44531,0.35156 -0.70313,0.11719 -1.5625,0.11719 -0.3125,0 -0.58594,0 -0.27344,-0.0391 -0.58594,-0.0781 l -0.39062,-0.0781 q -0.0781,-0.42969 -0.15625,-0.46875 -0.0781,-0.0781 -0.15625,-0.15625 -0.19532,-0.19531 -0.42969,-0.50781 -0.19531,-0.35157 -0.0781,-0.85938 -0.19531,-0.35156 -0.23437,-0.70312 -0.23438,0.46875 -0.35156,0.97656 l -0.15625,0.39062 -0.39063,0.0781 q -0.0781,0.0391 -0.11719,0.19531 -0.0391,0.11719 -0.0391,0.19531 l -0.19531,0.66407 q -0.0781,0.0781 -0.15625,0.15625 -0.0781,0.0391 -0.15625,0.11718 -0.0781,0.35157 -0.19531,0.70313 -0.11719,0.35156 -0.23438,0.66406 -0.19531,0.50781 -0.35156,1.01563 -0.11719,0.46875 -0.0781,0.9375 l -0.15625,0.42968 q -0.19531,0.23438 -0.42968,0.39063 -0.23438,0.11719 -0.46875,0.23437 -0.0781,0.0781 -0.23438,0.15625 -0.11719,0.0391 -0.19531,0.0781 l -0.11719,0.42969 -0.46875,0.0781 q -0.42969,0.0781 -0.625,0.11719 -0.15625,0.0391 -0.39062,0.0391 l -0.39063,-0.0391 q -0.42969,-0.35156 -0.66406,-0.54688 -0.23438,-0.23437 -0.54688,-0.42968 -0.35156,-0.46875 -0.39062,-0.70313 -0.0391,-0.23437 -0.0781,-0.42969 -0.0781,-0.23437 -0.0781,-0.39062 -0.0391,-0.15625 -0.11719,-0.23438 l -0.50781,-0.46875 0.42969,-0.35156 0.0391,-0.66406 q 0.78125,-1.99219 1.64062,-3.82813 0.89844,-1.83593 1.83594,-3.75 0.3125,-0.625 0.58594,-1.25 0.3125,-0.625 0.625,-1.25 -0.0391,-0.11718 -0.0391,-0.27343 0,-0.15625 0.0781,-0.35157 0.42969,-0.66406 0.70313,-1.17187 0.27343,-0.54688 0.54687,-1.09375 0.3125,-0.66406 0.625,-1.28906 0.35156,-0.625 0.85938,-1.28907 l 0.625,-0.27343 q 0.11718,-0.0391 0.27343,-0.0781 0.15625,-0.0781 0.35157,-0.0781 l 0.58593,0.0781 q 1.09375,-0.50781 1.91407,-1.40625 0.82031,-0.9375 1.67968,-2.22656 l 0.39063,-0.54688 0.50781,0.3125 q 0.19531,0.11719 0.54688,0.23438 0.35156,0.0781 0.74218,0.19531 0.70313,0.15625 1.32813,0.35156 0.625,0.19532 1.01562,0.58594 0.23438,0.625 0.27344,0.9375 0.0391,0.3125 0.11719,0.625 0.11719,0.66406 0.19531,1.32813 0.11719,0.66406 0.15625,1.48437 0.19531,0.66406 0.3125,1.32813 0.15625,0.625 0.27344,1.28906 0.19531,0.9375 0.39062,1.83594 0.19532,0.85937 0.50782,1.64062 0.3125,0 0.39062,0.0391 0.19531,-0.0781 0.39063,-0.11718 0.23437,-0.0391 0.50781,-0.0781 l 0.42969,-0.0391 0.15625,0.39062 q 0.0391,0.19532 0.39062,0.39063 0.50781,0.0391 0.74219,0.23437 0.23437,0.15625 0.42969,0.35157 0.15625,0.15625 0.3125,0.23437 l 0.58593,0.23438 -0.3125,0.58593 q -0.39062,0.70313 -1.13281,1.36719 -0.70312,0.625 -1.60156,1.05469 0.0391,0.23437 0.0391,0.46875 0.0391,0.19531 0.11719,0.42969 0.11719,0.66406 0.19531,1.36718 0.0781,0.70313 0,1.44532 z m -11.28907,-6.75782 q 1.17188,-0.0781 2.10938,-0.15625 0.97656,-0.11718 2.14844,-0.35156 -0.27344,-1.17187 -0.58594,-2.42187 -0.3125,-1.28907 -0.66406,-2.53907 l -0.23438,0.39063 q -0.78125,0.82031 -1.52344,1.83594 -0.70312,1.01562 -1.21093,1.91406 -0.23438,0.35156 -0.46875,0.70312 -0.23438,0.35157 -0.42969,0.70313 0.23437,-0.0391 0.42969,-0.0391 0.23437,0 0.42968,-0.0391 z"
         style="font-family:'Permanent Marker';-inkscape-font-specification:'Permanent Marker, Normal'"
         id="path44318" />
    </g>
    <g
       aria-label="Blaze"
       transform="matrix(0.26458333,0,0,0.26458333,35.913414,-37.411518)"
       id="text3090-4"
       style="font-size:40px;line-height:1.25;letter-spacing:0px;word-spacing:0px;white-space:pre;shape-inside:url(#rect3092-1)">
      <path
         d="m -807.05795,272.31251 q -1.85937,-0.75261 -3.09895,-2.125 -1.19531,-1.3724 -1.94792,-3.23177 0.44271,-1.19531 1.41667,-1.99219 0.97396,-0.84114 2.16927,-1.41666 1.23958,-0.57552 2.61198,-0.92969 1.37239,-0.35417 2.65624,-0.61979 0.26563,0.0885 0.26563,0 0,-0.0885 0.22135,0.0885 1.59375,-0.48698 3.67448,-0.92969 2.08073,-0.48698 4.42708,-0.35416 0.30989,-0.17709 0.7526,-0.17709 0.44271,-0.0443 0.92969,-0.0443 0.48698,0 0.92969,0 0.4427,-0.0443 0.7526,-0.17708 0.26563,0.3099 0.79687,0.39844 0.53125,0.0443 1.10677,0.44271 0.17709,0.0443 0,-0.13282 -0.17708,-0.22135 0.0443,-0.30989 0.57552,0 1.01822,0.26562 0.44271,0.26563 0.79688,0.61979 0.39844,0.3099 0.70833,0.57552 0.35417,0.26563 0.75261,0.26563 0.39843,0.48698 0.92968,0.92969 0.57552,0.39843 1.0625,0.84114 0.53125,0.44271 0.84115,0.97396 0.35416,0.53125 0.35416,1.19531 -0.0443,0.26562 0.17709,0.3099 0.22135,0.0443 0.30989,0.26562 0.0443,1.63802 -0.53125,2.83333 -0.53125,1.19531 -1.37239,2.21354 -0.84115,0.97396 -1.81511,1.85938 -0.92968,0.88541 -1.72656,1.90364 0.53125,0.66406 1.19531,1.23958 0.70834,0.53125 1.41667,1.0625 0.70833,0.53125 1.32812,1.15104 0.66407,0.57552 1.10677,1.32813 0.13282,0.26562 0.57552,0.35416 0.13282,0.53125 0.35417,1.10677 0.26563,0.53125 0.48698,1.0625 0.22135,0.48698 0.26562,0.88542 0.0443,0.39844 -0.22135,0.66406 0.3099,0.17708 0.35417,0.57552 0.0443,0.35417 0,0.57552 -0.97396,1.19531 -1.32813,1.68229 -0.35416,0.48698 -0.53125,0.70833 -0.17708,0.22136 -0.35416,0.39844 -0.17709,0.17709 -0.79688,0.70833 -2.34635,1.41667 -4.91406,2.56771 -2.52343,1.10677 -5.26822,1.50521 -0.22136,0.30989 -0.66406,0.48698 -0.39844,0.22135 -0.92969,0.35416 -0.53125,0.13282 -1.15104,0.22136 -0.57552,0.0885 -1.0625,0.17708 -0.22135,-0.0885 -0.26563,-0.30989 0,-0.17709 -0.22135,-0.26563 -0.0443,0.53125 -0.48698,0.53125 -0.39844,0.0443 -1.01823,-0.17708 -0.61979,-0.22136 -1.28385,-0.61979 -0.66406,-0.39844 -1.15104,-0.75261 -0.22136,0.39844 -0.57552,0.84115 -0.3099,0.44271 -0.66406,0.61979 -0.61979,-0.0885 -0.92969,-0.13281 -0.26563,-0.0443 -0.53125,0.22135 -0.35417,-0.17708 -0.53125,-0.39844 -0.17708,-0.17708 -0.35417,-0.39843 -0.17708,-0.17709 -0.39843,-0.3099 -0.22136,-0.17708 -0.66407,-0.3099 0.0886,-0.22135 -0.13281,-0.66406 -0.22135,-0.48698 -0.61979,-0.57552 0.22136,-0.35416 -0.17708,-0.88541 -0.39844,-0.57552 -0.61979,-1.28386 0.0443,-0.30989 0.0443,-0.61979 0.0443,-0.35416 0.0885,-0.61979 0.0885,-0.3099 0.22135,-0.53125 0.13282,-0.22135 0.44271,-0.30989 -0.0443,-0.57553 -0.35417,-1.10677 0.39844,-0.3099 0.53125,-0.75261 0.13282,-0.48698 0.22136,-0.97396 0.13281,-0.48698 0.30989,-0.92968 0.17709,-0.48698 0.57552,-0.79688 -0.0885,-0.13281 -0.17708,-0.22135 -0.0885,-0.0885 -0.0885,-0.3099 0.66406,-1.10677 0.92969,-1.85937 0.26562,-0.79688 0.39843,-1.50521 0.17709,-0.7526 0.35417,-1.59375 0.17708,-0.84114 0.70833,-2.125 -0.0443,-0.79687 0.17709,-1.41666 0.22135,-0.61979 0.4427,-1.19531 0.26563,-0.61979 0.39844,-1.28386 0.13281,-0.66406 -0.0443,-1.54947 -0.7526,0.0885 -1.10677,0.53125 -0.3099,0.4427 -0.39844,1.19531 -0.39843,0.35416 -1.01823,0.35416 -0.61979,-0.0443 -1.10677,0.13282 z m 19.47916,8.54426 q -1.68229,-0.92969 -3.09896,-1.10677 -1.37239,-0.17708 -2.65625,0.0443 -1.23958,0.17708 -2.39062,0.53125 -1.15104,0.35417 -2.30208,0.53125 -0.57552,1.50521 -1.19531,3.32031 -0.61979,1.8151 -1.19531,3.54167 1.59374,-0.22136 2.92187,-0.66407 1.32812,-0.4427 2.5677,-0.97395 1.23959,-0.57553 2.4349,-1.10677 1.19531,-0.57553 2.47916,-1.0625 0.13282,-0.53125 0.57552,-0.84115 0.44271,-0.30989 0.88542,-0.57552 0.44271,-0.3099 0.7526,-0.66406 0.3099,-0.35417 0.22136,-0.97396 z m -3.09896,-13.85676 q -2.74479,-0.0885 -5.40104,0.48698 -2.65624,0.57552 -4.47135,1.68229 0.88542,0.7526 1.81511,1.32812 0.97395,0.57552 1.46093,1.54948 2.125,-0.84114 3.71875,-2.125 1.59375,-1.32812 2.8776,-2.92187 z"
         style="font-size:45.3333px;font-family:'Permanent Marker';-inkscape-font-specification:'Permanent Marker, Normal';fill:#ff0000"
         id="path44295" />
      <path
         d="m -767.92256,293.20832 q -1.23958,0.39844 -2.70052,0.79688 -1.46093,0.39844 -2.92187,0.39844 -2.21354,0 -3.49739,-1.10677 -0.22136,-0.48698 -0.39844,-0.66407 -0.13281,-0.17708 -0.26562,-0.35416 -0.0885,-0.22136 -0.13282,-0.57552 -0.53125,-0.61979 -0.84114,-1.41667 -0.3099,-0.84114 -0.44271,-1.68229 -0.0885,-0.88541 -0.0443,-1.77083 0.0885,-0.88542 0.3099,-1.68229 0.0885,-0.17708 0.0885,-0.35417 0.0443,-0.17708 0.0885,-0.39844 0.17708,-0.70833 0.35416,-1.37239 0.22136,-0.66406 0.57553,-1.15104 -0.17709,-0.39844 0,-0.88542 0.17708,-0.48698 0.39843,-0.88541 0.61979,-1.68229 1.01823,-2.83333 0.44271,-1.19532 0.88542,-2.34636 0.7526,-1.99218 1.41666,-3.9401 0.66406,-1.94791 1.19531,-4.20572 0.35417,-0.22136 0.53125,-0.3099 0.26563,-0.0885 0.44271,-0.13281 0.79688,0.39843 1.85938,0.79687 1.0625,0.35417 1.77083,0.35417 0.35416,0.22135 0.44271,0.35416 0.0885,0.0885 0.17708,0.17709 0.48698,0.57552 0.84114,1.19531 0.35417,0.57552 0.22136,1.54948 -0.26563,0.39844 -0.39844,0.39844 -0.22135,0.88541 -0.48698,1.5052 -0.22135,0.61979 -0.48698,1.23958 -0.30989,0.66407 -0.57552,1.32813 -0.26562,0.66406 -0.4427,1.63802 -0.17709,0.22135 -0.26563,0.39844 -0.0443,0.17708 -0.13281,0.39843 -0.0885,0.22136 -0.22136,0.48698 -0.0885,0.22136 -0.30989,0.39844 -0.13281,1.15104 -0.44271,1.85937 -0.26562,0.70834 -0.57552,1.41667 -0.53125,1.28385 -0.97396,2.5677 -0.39844,1.28386 -0.48698,2.92188 0.22136,-0.0885 0.39844,-0.0885 0.22135,0 0.39844,0 0.39843,0 0.92968,0.13281 1.32813,-0.70833 2.87761,-0.84115 1.59375,-0.13281 3.14322,-0.17708 0.61979,0 1.23959,0 0.61979,0 1.15104,-0.0885 0.39843,0.22135 0.48698,0.26562 0.13281,0 0.35416,0 0.3099,0 0.53125,0.0443 0.53125,0.48698 1.01823,0.70834 0.48698,0.22135 1.01823,0.39843 0.48698,0.17709 0.92969,0.39844 0.48697,0.17708 0.92968,0.53125 l 0.3099,1.90365 q 0.30989,0.39843 0.26562,0.53125 0,0.35416 -0.17708,0.53124 l 0.0885,0.48698 q -0.66406,0.13282 -0.92969,0.3099 -0.22135,0.17708 -0.4427,0.39844 -0.35417,0.0443 -0.53125,0.0443 -0.13282,0 -0.26563,0 -0.61979,0 -1.50521,0.22135 -1.19531,-0.39844 -2.47916,-0.39844 -0.48698,0 -1.01823,0.0443 -0.53125,0.0443 -1.0625,0.0885 -0.53125,0.0885 -1.10677,0.13281 -0.53125,0.0443 -1.10677,0.0443 z"
         style="font-size:45.3333px;font-family:'Permanent Marker';-inkscape-font-specification:'Permanent Marker, Normal';fill:#ff0000"
         id="path44297" />
      <path
         d="m -732.01894,289.97656 q -0.26562,0.7526 -0.79687,1.54947 -0.48698,0.75261 -1.19531,1.3724 -0.66406,0.57552 -1.50521,0.97396 -0.84114,0.39843 -1.77083,0.4427 -0.57552,-0.13281 -0.79688,-0.30989 -0.17708,-0.13281 -0.39843,-0.26563 -0.13282,-0.0885 -0.26563,-0.13281 -0.0885,-0.0885 -0.17708,-0.13281 l -0.53125,-0.22135 0.17708,-0.57553 q 0.0885,-0.35416 -0.0443,-0.53124 -0.13281,-0.22136 -0.53125,-0.57553 -0.13281,-0.13281 -0.26562,-0.26562 -0.13282,-0.13281 -0.22136,-0.26562 l -0.7526,-0.84115 1.19531,-0.3099 q 1.10677,-0.30989 1.46094,-0.79687 0.39843,-0.48698 0.30989,-1.63802 -0.88541,-0.17708 -1.5052,-0.0443 -0.57552,0.13281 -1.19532,0.3099 -0.79687,0.22135 -1.63802,0.39843 -0.79687,0.13281 -1.77083,0.13281 -0.35416,0 -0.66406,0 -0.3099,-0.0443 -0.66406,-0.0885 l -0.44271,-0.0885 q -0.0885,-0.48698 -0.17708,-0.53125 -0.0885,-0.0885 -0.17709,-0.17708 -0.22135,-0.22136 -0.48697,-0.57552 -0.22136,-0.39844 -0.0886,-0.97396 -0.22135,-0.39844 -0.26562,-0.79687 -0.26563,0.53125 -0.39844,1.10677 l -0.17708,0.4427 -0.44271,0.0885 q -0.0885,0.0443 -0.13281,0.22135 -0.0443,0.13281 -0.0443,0.22135 l -0.22136,0.75261 q -0.0885,0.0885 -0.17708,0.17708 -0.0885,0.0443 -0.17708,0.13281 -0.0885,0.39844 -0.22136,0.79688 -0.13281,0.39843 -0.26562,0.7526 -0.22136,0.57552 -0.39844,1.15104 -0.13281,0.53125 -0.0885,1.0625 l -0.17708,0.48698 q -0.22136,0.26562 -0.48698,0.44271 -0.26563,0.13281 -0.53125,0.26562 -0.0885,0.0885 -0.26563,0.17709 -0.13281,0.0443 -0.22135,0.0885 l -0.13281,0.48698 -0.53125,0.0885 q -0.48698,0.0885 -0.70834,0.13281 -0.17708,0.0443 -0.4427,0.0443 l -0.44271,-0.0443 q -0.48698,-0.39844 -0.75261,-0.61979 -0.26562,-0.26563 -0.61979,-0.48698 -0.39843,-0.53125 -0.44271,-0.79687 -0.0443,-0.26563 -0.0885,-0.48698 -0.0885,-0.26563 -0.0885,-0.44271 -0.0443,-0.17708 -0.13281,-0.26563 l -0.57552,-0.53125 0.48698,-0.39843 0.0443,-0.75261 q 0.88541,-2.25781 1.85937,-4.33853 1.01823,-2.08073 2.08073,-4.25 0.35417,-0.70833 0.66406,-1.41667 0.35417,-0.70833 0.70833,-1.41666 -0.0443,-0.13282 -0.0443,-0.3099 0,-0.17708 0.0886,-0.39844 0.48697,-0.7526 0.79687,-1.32812 0.3099,-0.61979 0.61979,-1.23958 0.35417,-0.75261 0.70833,-1.46094 0.39844,-0.70833 0.97396,-1.46094 l 0.70833,-0.30989 q 0.13282,-0.0443 0.3099,-0.0885 0.17708,-0.0885 0.39844,-0.0885 l 0.66406,0.0885 q 1.23958,-0.57552 2.16927,-1.59375 0.92969,-1.0625 1.90364,-2.52344 l 0.44271,-0.61979 0.57552,0.35417 q 0.22136,0.13281 0.61979,0.26562 0.39844,0.0885 0.84115,0.22136 0.79687,0.17708 1.50521,0.39843 0.70833,0.22136 1.15104,0.66407 0.26562,0.70833 0.30989,1.0625 0.0443,0.35416 0.13281,0.70833 0.13282,0.7526 0.22136,1.50521 0.13281,0.7526 0.17708,1.68229 0.22136,0.7526 0.35417,1.5052 0.17708,0.70834 0.30989,1.46094 0.22136,1.0625 0.44271,2.08073 0.22136,0.97396 0.57552,1.85937 0.35417,0 0.44271,0.0443 0.22135,-0.0885 0.44271,-0.13281 0.26562,-0.0443 0.57552,-0.0885 l 0.48698,-0.0443 0.17708,0.44271 q 0.0443,0.22135 0.44271,0.4427 0.57552,0.0443 0.84114,0.26563 0.26563,0.17708 0.48698,0.39844 0.17709,0.17708 0.35417,0.26562 l 0.66406,0.26562 -0.35417,0.66407 q -0.4427,0.79687 -1.28385,1.54947 -0.79687,0.70834 -1.8151,1.19532 0.0443,0.26562 0.0443,0.53125 0.0443,0.22135 0.13281,0.48698 0.13281,0.7526 0.22136,1.54947 0.0885,0.79688 0,1.63802 z m -12.79426,-7.65885 q 1.32813,-0.0885 2.39063,-0.17709 1.10677,-0.13281 2.43489,-0.39843 -0.3099,-1.32813 -0.66406,-2.74479 -0.35417,-1.46094 -0.75261,-2.87761 l -0.26562,0.44271 q -0.88542,0.92969 -1.72656,2.08073 -0.79688,1.15104 -1.3724,2.16927 -0.26562,0.39844 -0.53125,0.79687 -0.26562,0.39844 -0.48698,0.79688 0.26563,-0.0443 0.48698,-0.0443 0.26563,0 0.48698,-0.0443 z"
         style="font-size:45.3333px;font-family:'Permanent Marker';-inkscape-font-specification:'Permanent Marker, Normal';fill:#ff0000"
         id="path44299" />
      <path
         d="m -724.31581,295.42186 q -0.22136,-0.0885 -0.48698,-0.17708 l -0.53125,-0.97396 -0.70834,0.53125 q -0.30989,-0.17708 -0.48697,-0.35416 -0.17709,-0.13282 -0.39844,-0.35417 -0.48698,-0.35417 -0.84115,-0.70833 -0.35416,-0.39844 -0.39843,-0.75261 l -0.0443,-0.4427 -0.4427,-0.0885 q -0.22136,-0.61979 -0.35417,-0.88541 -0.13281,-0.3099 -0.44271,-0.48698 -0.26562,-2.21354 0.17709,-3.67448 0.4427,-1.5052 1.32812,-3.18749 0.53125,-0.17709 0.92969,-0.48698 0.4427,-0.3099 0.79687,-0.61979 0.35417,-0.3099 0.70833,-0.53125 0.35417,-0.26563 0.66407,-0.3099 l 0.39843,-0.22135 q 0.75261,-0.88542 1.81511,-1.54948 1.0625,-0.70833 2.21354,-1.41667 0.92968,-0.53125 1.85937,-1.10677 0.97396,-0.61979 1.72656,-1.32812 0.35417,0.0443 0.61979,-0.13281 0.17709,-0.22136 0.17709,-0.57552 0.0885,-0.0885 0.17708,-0.13282 0.13281,-0.0885 0.22135,-0.17708 0.3099,-0.22135 0.84115,-0.53125 0.53125,-0.3099 0.70833,-0.79687 l 0.97396,-0.92969 -1.32813,0.0443 q -1.01822,0.0443 -2.16926,0.13281 -1.10677,0.0885 -1.90365,0.17709 -0.66406,0.0885 -1.37239,0.13281 -0.70834,0 -1.54948,0.0443 -1.3724,-0.88542 -1.99219,-2.61198 -0.57552,-1.77083 -0.0443,-3.45312 0.3099,-0.0443 0.53125,-0.13281 0.22135,-0.13282 0.44271,-0.22136 0.39844,-0.0443 0.53125,0 0.13281,0.0443 0.35416,0.0443 1.23959,-0.22135 2.03646,-0.26562 0.84115,-0.0885 1.54948,-0.0885 0.7526,0 1.46094,0.0885 0.70833,0.0443 1.37239,0.26562 1.54948,0 3.14323,-0.13281 1.59375,-0.13281 3.27604,0.22135 1.19531,-0.39843 2.34635,-0.22135 1.19531,0.17708 2.08073,1.0625 0.0443,0.7526 0.35416,1.15104 0.35417,0.35417 0.88542,0.53125 0.35417,1.28385 0.0443,2.25781 -0.26562,0.97396 -0.92969,1.72656 -0.66406,0.75261 -1.59375,1.3724 -0.88541,0.57552 -1.77083,1.10677 -0.26562,0.39843 -0.66406,0.66406 -0.35417,0.22135 -0.66406,0.57552 -1.46094,1.85937 -3.36458,3.27604 -1.85938,1.37239 -3.85156,2.65625 -1.41667,0.92968 -2.83333,1.90364 -1.3724,0.92969 -2.65625,2.03646 l -0.44271,0.39844 0.39844,0.4427 q 0.53125,0.53125 1.23958,0.53125 0.39844,0 0.7526,-0.0885 0.39844,-0.13281 0.75261,-0.26562 0.35416,-0.0885 0.61979,-0.17709 0.26562,-0.13281 0.48698,-0.13281 h 0.57552 q 0.35416,-0.22135 0.70833,-0.35416 0.35417,-0.13282 0.70833,-0.22136 0.35417,-0.0885 0.66407,-0.17708 0.30989,-0.0885 0.66406,-0.3099 0.97396,0 1.8151,-0.26562 0.88542,-0.26563 1.77083,-0.61979 0.53125,-0.22136 1.01823,-0.39844 0.53125,-0.17708 1.0625,-0.26563 0.17708,0.22136 0.39844,0.39844 0.26562,0.13281 0.48698,0.26563 0.57552,0.35416 0.61979,0.66406 l 0.13281,1.23958 0.84115,-0.84114 q 0.53124,0.4427 0.57552,1.01822 0.0443,0.53125 -0.13282,1.41667 -1.41666,1.41667 -3.54166,2.21354 -2.125,0.79687 -4.51562,1.54948 -0.48698,0.13281 -1.01823,0.26562 -0.48698,0.13282 -0.97396,0.3099 l 0.0443,-0.75261 -0.97396,0.6198 q -0.17708,0.13281 -0.30989,0.26562 -0.0885,0.13281 -0.17708,0.26563 -1.15105,0.30989 -1.90365,0.4427 -0.7526,0.13282 -1.41666,0.26563 -0.75261,0.17708 -1.41667,0.26562 -0.66406,0.13282 -1.41667,0.13282 -0.22135,0 -0.48697,0 -0.26563,0 -0.53125,-0.0443 z"
         style="font-size:45.3333px;font-family:'Permanent Marker';-inkscape-font-specification:'Permanent Marker, Normal';fill:#ff0000"
         id="path44301" />
      <path
         d="m -679.55803,268.77084 q 0.0443,0.3099 0,0.48698 0,0.13281 -0.0443,0.26563 0,0.13281 0,0.30989 0,0.13281 0.0885,0.44271 -0.92969,1.50521 -2.16927,2.08073 -1.19531,0.53125 -2.61198,0.79687 -1.41666,0.22136 -2.92187,0.48698 -1.46094,0.26562 -2.92187,1.15104 -0.57552,-0.22135 -1.0625,0 -0.44271,0.22135 -1.32813,0.13281 -0.26562,0.26563 -0.66406,0.39844 -0.39844,0.0885 -0.79687,0.22135 0.17708,0.39844 0.13281,0.84115 0,0.39844 0.13281,0.66406 1.54948,0.13281 3.40885,-0.0443 1.90365,-0.17708 3.71875,-0.22135 0.0443,0.22135 -0.0443,0.30989 -0.0885,0.0443 -0.0443,0.22136 0.3099,0.22135 0.61979,0.57552 0.3099,0.30989 0.61979,0.61979 0.3099,0.30989 0.61979,0.53125 0.35417,0.17708 0.79688,0.13281 0.17708,0.35417 0.22135,0.79687 0.0885,0.39844 -0.0885,0.84115 -0.70833,0.48698 -1.41667,1.01823 -0.70833,0.48698 -1.5052,0.88541 -0.75261,0.39844 -1.63802,0.66407 -0.84115,0.22135 -1.90365,0.17708 -0.22135,0 -0.35416,0 -0.0885,0 -0.26563,-0.13281 -0.35416,0.22135 -1.01823,0.13281 -0.61979,-0.0885 -0.97395,0.13281 -0.48698,-0.22135 -1.19532,-0.17708 -0.66406,0 -1.19531,-0.17708 -0.70833,0.92968 -1.28385,1.99218 -0.57552,1.0625 -1.01823,2.25781 1.50521,0.22136 2.47917,0.17709 1.01822,-0.0443 1.90364,-0.13282 0.88542,-0.13281 1.8151,-0.22135 0.92969,-0.13281 2.34636,-0.0885 0.88541,-0.48698 2.08072,-0.61979 1.23959,-0.17709 2.25781,-0.53125 0.35417,0.13281 0.6198,0.48698 0.26562,0.30989 0.48697,0.61979 0.26563,0.26562 0.53125,0.48698 0.26563,0.22135 0.66407,0.17708 0.17708,0.17708 0.22135,0.44271 0.0885,0.22135 0.13281,0.44271 0.0443,0.22135 0.13281,0.39843 0.13282,0.13281 0.39844,0.0885 -0.66406,1.46094 -1.54948,2.25781 -0.84114,0.75261 -1.94791,1.15105 -1.10677,0.39843 -2.47917,0.61979 -1.32812,0.22135 -2.96614,0.53125 -0.39844,0.0885 -0.66406,-0.0443 -0.26563,-0.0885 -0.61979,-0.0885 -1.01823,0.22136 -2.4349,0.39844 -1.41666,0.17708 -2.8776,0.13281 -1.46094,-0.0443 -2.78906,-0.39843 -1.32812,-0.3099 -2.16927,-1.15104 -0.35417,-0.3099 -0.48698,-0.70834 -0.0885,-0.44271 -0.57552,-0.66406 -0.0443,-0.57552 -0.17708,-1.28385 -0.13281,-0.70834 -0.26563,-1.46094 -0.13281,-0.79687 -0.22135,-1.54948 -0.0443,-0.7526 0.0885,-1.37239 0.13281,-0.66406 0.53125,-1.19531 0.44271,-0.53125 0.3099,-1.15104 0.22135,-0.0443 0.26562,-0.22136 0.0443,-0.22135 0.35417,-0.17708 0.26562,-0.79688 0.57552,-1.50521 0.30989,-0.70833 0.61979,-1.37239 0.35417,-0.66407 0.66406,-1.32813 0.35417,-0.70833 0.66406,-1.54948 -0.61979,-0.57552 -0.92968,-1.23958 -0.26563,-0.70833 -0.39844,-1.37239 -0.13281,-0.70834 -0.22136,-1.41667 -0.0885,-0.7526 -0.30989,-1.50521 0.44271,-0.66406 1.0625,-1.0625 0.66406,-0.4427 1.41666,-0.70833 0.75261,-0.26562 1.63802,-0.44271 0.88542,-0.17708 1.85938,-0.39843 1.77083,-0.57552 3.14322,-0.88542 1.41667,-0.3099 2.74479,-0.48698 1.3724,-0.22135 2.83334,-0.39844 1.46093,-0.17708 3.32031,-0.53125 0.39843,0.39844 0.7526,0.39844 0.17708,-0.39844 0.39844,-0.22135 0.26562,0.13281 0.22135,-0.26563 0.44271,0.75261 1.10677,1.28386 0.70833,0.48698 1.54948,0.84114 z"
         style="font-size:45.3333px;font-family:'Permanent Marker';-inkscape-font-specification:'Permanent Marker, Normal';fill:#ff0000"
         id="path44303" />
    </g>
  </g>
</svg>
